<svg width="45" height="53" viewBox="0 0 45 53" fill="none" xmlns="http://www.w3.org/2000/svg">
<path d="M43.125 12.1875C43.125 17.8829 33.8909 22.5 22.5 22.5C11.1091 22.5 1.875 17.8829 1.875 12.1875M43.125 12.1875C43.125 6.49206 33.8909 1.875 22.5 1.875C11.1091 1.875 1.875 6.49206 1.875 12.1875M43.125 12.1875V40.3125C43.125 46.0079 33.8909 50.625 22.5 50.625C11.1091 50.625 1.875 46.0079 1.875 40.3125V12.1875M43.125 12.1875V21.5625M1.875 12.1875V21.5625M43.125 21.5625V30.9375C43.125 36.6329 33.8909 41.25 22.5 41.25C11.1091 41.25 1.875 36.6329 1.875 30.9375V21.5625M43.125 21.5625C43.125 27.2579 33.8909 31.875 22.5 31.875C11.1091 31.875 1.875 27.2579 1.875 21.5625" stroke="url(#paint0_linear_1252_463)" stroke-width="3.75" stroke-linecap="round" stroke-linejoin="round"/>
<defs>
<linearGradient id="paint0_linear_1252_463" x1="-15.175" y1="2.23881" x2="72.1429" y2="35.4681" gradientUnits="userSpaceOnUse">
<stop offset="0.168269" stop-color="#00B2C2"/>
<stop offset="0.617696" stop-color="#093493"/>
<stop offset="1" stop-color="#321F96"/>
</linearGradient>
</defs>
</svg>
