<svg width="92" height="67" viewBox="0 0 92 67" fill="none" xmlns="http://www.w3.org/2000/svg">
<g clip-path="url(#clip0_1748_4487)">
<g clip-path="url(#clip1_1748_4487)">
<path fill-rule="evenodd" clip-rule="evenodd" d="M41.4657 3C39.5862 3.00139 38.0651 4.52359 38.0665 6.39931C38.0651 8.27503 39.5876 9.79723 41.4671 9.79861H44.8676V6.40069C44.869 4.52497 43.3465 3.00277 41.4657 3C41.4671 3 41.4671 3 41.4657 3V3ZM41.4657 12.0667H32.4003C30.5208 12.0681 28.9984 13.5903 28.9998 15.466C28.997 17.3417 30.5195 18.8639 32.3989 18.8667H41.4657C43.3452 18.8653 44.8676 17.3431 44.8662 15.4674C44.8676 13.5903 43.3452 12.0681 41.4657 12.0667Z" fill="#36C5F0"/>
<path fill-rule="evenodd" clip-rule="evenodd" d="M63.0003 15.466C63.0017 13.5903 61.4792 12.0681 59.5997 12.0667C57.7202 12.0681 56.1977 13.5903 56.199 15.466V18.8667H59.5997C61.4792 18.8653 63.0017 17.3431 63.0003 15.466ZM53.9334 15.466V6.39931C53.9348 4.52497 52.4137 3.00277 50.5342 3C48.6547 3.00139 47.1322 4.52359 47.1335 6.39931V15.466C47.1308 17.3417 48.6533 18.8639 50.5328 18.8667C52.4123 18.8653 53.9348 17.3431 53.9334 15.466Z" fill="#2EB67D"/>
<path fill-rule="evenodd" clip-rule="evenodd" d="M50.5324 37.0009C52.4119 36.9995 53.9344 35.4773 53.933 33.6016C53.9344 31.7258 52.4119 30.2036 50.5324 30.2023H47.1318V33.6016C47.1304 35.4759 48.6529 36.9981 50.5324 37.0009ZM50.5324 27.9328H59.5993C61.4788 27.9314 63.0013 26.4092 62.9999 24.5335C63.0027 22.6578 61.4802 21.1356 59.6007 21.1328H50.5338C48.6543 21.1342 47.1318 22.6564 47.1332 24.5321C47.1318 26.4092 48.6529 27.9314 50.5324 27.9328Z" fill="#ECB22E"/>
<path fill-rule="evenodd" clip-rule="evenodd" d="M29 24.5322C28.9986 26.4079 30.5211 27.9301 32.4006 27.9315C34.2801 27.9301 35.8026 26.4079 35.8012 24.5322V21.1328H32.4006C30.5211 21.1342 28.9986 22.6564 29 24.5322ZM38.0668 24.5322V33.599C38.064 35.4747 39.5865 36.9969 41.466 36.9997C43.3455 36.9983 44.868 35.4761 44.8666 33.6004V24.5349C44.8694 22.6592 43.3469 21.137 41.4674 21.1342C39.5865 21.1342 38.0654 22.6564 38.0668 24.5322C38.0668 24.5336 38.0668 24.5322 38.0668 24.5322Z" fill="#E01E5A"/>
</g>
</g>
<path d="M31.117 63.16C30.189 63.16 29.4103 63.0213 28.781 62.744C28.1517 62.456 27.6663 62.088 27.325 61.64C26.9943 61.1813 26.8183 60.696 26.797 60.184C26.797 60.0987 26.829 60.024 26.893 59.96C26.9677 59.8853 27.053 59.848 27.149 59.848H27.965C28.093 59.848 28.189 59.88 28.253 59.944C28.317 60.008 28.3597 60.0827 28.381 60.168C28.4343 60.424 28.5623 60.68 28.765 60.936C28.9783 61.1813 29.2717 61.3893 29.645 61.56C30.029 61.72 30.5197 61.8 31.117 61.8C32.0343 61.8 32.7063 61.64 33.133 61.32C33.5703 60.9893 33.789 60.552 33.789 60.008C33.789 59.6347 33.6717 59.336 33.437 59.112C33.213 58.8773 32.8663 58.6693 32.397 58.488C31.9277 58.3067 31.3197 58.1093 30.573 57.896C29.7943 57.672 29.149 57.4267 28.637 57.16C28.125 56.8933 27.741 56.5627 27.485 56.168C27.2397 55.7733 27.117 55.272 27.117 54.664C27.117 54.088 27.2717 53.576 27.581 53.128C27.8903 52.6693 28.333 52.3067 28.909 52.04C29.4957 51.7733 30.205 51.64 31.037 51.64C31.6983 51.64 32.2743 51.7307 32.765 51.912C33.2663 52.0827 33.6823 52.3173 34.013 52.616C34.3437 52.904 34.5943 53.2187 34.765 53.56C34.9357 53.8907 35.0263 54.216 35.037 54.536C35.037 54.6107 35.0103 54.6853 34.957 54.76C34.9037 54.824 34.8183 54.856 34.701 54.856H33.853C33.7783 54.856 33.6983 54.8347 33.613 54.792C33.5383 54.7493 33.4797 54.6693 33.437 54.552C33.373 54.1147 33.1277 53.7467 32.701 53.448C32.2743 53.1493 31.7197 53 31.037 53C30.3437 53 29.7783 53.1333 29.341 53.4C28.9143 53.6667 28.701 54.0827 28.701 54.648C28.701 55.0107 28.8023 55.3147 29.005 55.56C29.2077 55.7947 29.5277 56.0027 29.965 56.184C30.4023 56.3653 30.973 56.5573 31.677 56.76C32.5303 56.9947 33.229 57.2453 33.773 57.512C34.317 57.768 34.717 58.0933 34.973 58.488C35.2397 58.872 35.373 59.368 35.373 59.976C35.373 60.648 35.197 61.224 34.845 61.704C34.493 62.1733 33.997 62.536 33.357 62.792C32.7277 63.0373 31.981 63.16 31.117 63.16ZM37.6461 63C37.5395 63 37.4488 62.968 37.3741 62.904C37.3101 62.8293 37.2781 62.7387 37.2781 62.632V52.008C37.2781 51.9013 37.3101 51.816 37.3741 51.752C37.4488 51.6773 37.5395 51.64 37.6461 51.64H38.3981C38.5155 51.64 38.6061 51.6773 38.6701 51.752C38.7341 51.816 38.7661 51.9013 38.7661 52.008V62.632C38.7661 62.7387 38.7341 62.8293 38.6701 62.904C38.6061 62.968 38.5155 63 38.3981 63H37.6461ZM43.4728 63.16C42.9394 63.16 42.4541 63.0533 42.0168 62.84C41.5794 62.6267 41.2274 62.3387 40.9608 61.976C40.6941 61.6133 40.5608 61.2027 40.5608 60.744C40.5608 60.008 40.8594 59.4213 41.4568 58.984C42.0541 58.5467 42.8328 58.2587 43.7928 58.12L46.1768 57.784V57.32C46.1768 56.808 46.0274 56.408 45.7288 56.12C45.4408 55.832 44.9661 55.688 44.3048 55.688C43.8248 55.688 43.4354 55.784 43.1368 55.976C42.8488 56.168 42.6461 56.4133 42.5288 56.712C42.4648 56.872 42.3528 56.952 42.1928 56.952H41.4728C41.3554 56.952 41.2648 56.92 41.2008 56.856C41.1474 56.7813 41.1208 56.696 41.1208 56.6C41.1208 56.44 41.1794 56.2427 41.2968 56.008C41.4248 55.7733 41.6168 55.544 41.8728 55.32C42.1288 55.096 42.4541 54.9093 42.8488 54.76C43.2541 54.6 43.7448 54.52 44.3208 54.52C44.9608 54.52 45.4994 54.6053 45.9368 54.776C46.3741 54.936 46.7154 55.1547 46.9608 55.432C47.2168 55.7093 47.3981 56.024 47.5048 56.376C47.6221 56.728 47.6808 57.0853 47.6808 57.448V62.632C47.6808 62.7387 47.6434 62.8293 47.5688 62.904C47.5048 62.968 47.4194 63 47.3128 63H46.5768C46.4594 63 46.3688 62.968 46.3048 62.904C46.2408 62.8293 46.2088 62.7387 46.2088 62.632V61.944C46.0701 62.136 45.8834 62.328 45.6488 62.52C45.4141 62.7013 45.1208 62.856 44.7688 62.984C44.4168 63.1013 43.9848 63.16 43.4728 63.16ZM43.8088 61.96C44.2461 61.96 44.6461 61.8693 45.0088 61.688C45.3714 61.496 45.6541 61.2027 45.8568 60.808C46.0701 60.4133 46.1768 59.9173 46.1768 59.32V58.872L44.3208 59.144C43.5634 59.2507 42.9928 59.432 42.6088 59.688C42.2248 59.9333 42.0328 60.248 42.0328 60.632C42.0328 60.9307 42.1181 61.1813 42.2888 61.384C42.4701 61.576 42.6941 61.72 42.9608 61.816C43.2381 61.912 43.5208 61.96 43.8088 61.96ZM53.3409 63.16C52.5835 63.16 51.9275 63.016 51.3729 62.728C50.8289 62.4293 50.4075 62.008 50.1089 61.464C49.8102 60.9093 49.6502 60.248 49.6289 59.48C49.6182 59.32 49.6129 59.1067 49.6129 58.84C49.6129 58.5733 49.6182 58.36 49.6289 58.2C49.6502 57.432 49.8102 56.776 50.1089 56.232C50.4075 55.6773 50.8289 55.256 51.3729 54.968C51.9275 54.6693 52.5835 54.52 53.3409 54.52C53.9595 54.52 54.4875 54.6053 54.9249 54.776C55.3729 54.9467 55.7409 55.1653 56.0289 55.432C56.3169 55.6987 56.5302 55.9867 56.6689 56.296C56.8182 56.6053 56.8982 56.8987 56.9089 57.176C56.9195 57.2827 56.8875 57.368 56.8129 57.432C56.7382 57.496 56.6475 57.528 56.5409 57.528H55.7729C55.6662 57.528 55.5862 57.5067 55.5329 57.464C55.4795 57.4107 55.4262 57.3253 55.3729 57.208C55.1809 56.6853 54.9195 56.3173 54.5889 56.104C54.2582 55.8907 53.8475 55.784 53.3569 55.784C52.7169 55.784 52.1942 55.9813 51.7889 56.376C51.3942 56.7707 51.1809 57.4053 51.1489 58.28C51.1382 58.664 51.1382 59.0373 51.1489 59.4C51.1809 60.2853 51.3942 60.9253 51.7889 61.32C52.1942 61.704 52.7169 61.896 53.3569 61.896C53.8475 61.896 54.2582 61.7893 54.5889 61.576C54.9195 61.3627 55.1809 60.9947 55.3729 60.472C55.4262 60.3547 55.4795 60.2747 55.5329 60.232C55.5862 60.1787 55.6662 60.152 55.7729 60.152H56.5409C56.6475 60.152 56.7382 60.184 56.8129 60.248C56.8875 60.312 56.9195 60.3973 56.9089 60.504C56.8982 60.728 56.8502 60.9573 56.7649 61.192C56.6795 61.4267 56.5409 61.6667 56.3489 61.912C56.1675 62.1467 55.9382 62.36 55.6609 62.552C55.3835 62.7333 55.0475 62.8827 54.6529 63C54.2689 63.1067 53.8315 63.16 53.3409 63.16ZM59.193 63C59.0863 63 58.9957 62.968 58.921 62.904C58.857 62.8293 58.825 62.7387 58.825 62.632V52.008C58.825 51.9013 58.857 51.816 58.921 51.752C58.9957 51.6773 59.0863 51.64 59.193 51.64H59.945C60.0517 51.64 60.137 51.6773 60.201 51.752C60.2757 51.816 60.313 51.9013 60.313 52.008V57.576L63.465 54.952C63.593 54.8453 63.689 54.776 63.753 54.744C63.8277 54.7013 63.945 54.68 64.105 54.68H64.953C65.049 54.68 65.129 54.712 65.193 54.776C65.257 54.84 65.289 54.92 65.289 55.016C65.289 55.0587 65.273 55.1067 65.241 55.16C65.2197 55.2133 65.1717 55.2667 65.097 55.32L61.401 58.392L65.497 62.376C65.625 62.4827 65.689 62.5787 65.689 62.664C65.689 62.76 65.657 62.84 65.593 62.904C65.529 62.968 65.449 63 65.353 63H64.521C64.361 63 64.2437 62.984 64.169 62.952C64.0943 62.9093 63.9983 62.8347 63.881 62.728L60.313 59.32V62.632C60.313 62.7387 60.2757 62.8293 60.201 62.904C60.137 62.968 60.0517 63 59.945 63H59.193Z" fill="white"/>
<defs>
<clipPath id="clip0_1748_4487">
<rect width="34" height="34" fill="white" transform="translate(29 3)"/>
</clipPath>
<clipPath id="clip1_1748_4487">
<rect width="34" height="34" fill="white" transform="translate(29 3)"/>
</clipPath>
</defs>
</svg>
