<svg width="92" height="67" viewBox="0 0 92 67" fill="none" xmlns="http://www.w3.org/2000/svg">
<g clip-path="url(#clip0_1748_4503)">
<path d="M57.7824 9.12286C55.6154 8.12853 53.2916 7.39595 50.8619 6.97637C50.8176 6.96827 50.7734 6.98851 50.7506 7.02898C50.4517 7.56054 50.1207 8.25399 49.8889 8.79905C47.2756 8.40781 44.6757 8.40781 42.116 8.79905C41.8841 8.24188 41.541 7.56054 41.2408 7.02898C41.218 6.98986 41.1738 6.96962 41.1296 6.97637C38.7012 7.39461 36.3774 8.12719 34.209 9.12286C34.1902 9.13095 34.1741 9.14446 34.1635 9.16199C29.7556 15.7472 28.5482 22.1705 29.1405 28.5142C29.1432 28.5452 29.1606 28.5749 29.1847 28.5938C32.0929 30.7294 34.9099 32.026 37.6746 32.8854C37.7189 32.8989 37.7658 32.8827 37.7939 32.8462C38.4479 31.9531 39.0309 31.0114 39.5308 30.0211C39.5603 29.9631 39.5321 29.8943 39.4718 29.8714C38.5471 29.5206 37.6666 29.0929 36.8196 28.6073C36.7526 28.5681 36.7473 28.4723 36.8089 28.4264C36.9871 28.2929 37.1654 28.1539 37.3356 28.0136C37.3664 27.988 37.4093 27.9826 37.4455 27.9988C43.0098 30.5392 49.0339 30.5392 54.5325 27.9988C54.5687 27.9812 54.6116 27.9866 54.6438 28.0123C54.814 28.1526 54.9922 28.2929 55.1718 28.4264C55.2334 28.4723 55.2294 28.5681 55.1624 28.6073C54.3154 29.1024 53.4349 29.5206 52.5089 29.87C52.4486 29.893 52.4218 29.9631 52.4513 30.0211C52.9619 31.0101 53.5448 31.9518 54.1868 32.8449C54.2136 32.8827 54.2618 32.8989 54.3061 32.8854C57.0842 32.026 59.9012 30.7294 62.8094 28.5938C62.8348 28.5749 62.8509 28.5465 62.8536 28.5155C63.5625 21.1815 61.6662 14.8109 57.8266 9.16333C57.8173 9.14446 57.8012 9.13095 57.7824 9.12286ZM40.3617 24.6515C38.6865 24.6515 37.3061 23.1135 37.3061 21.2247C37.3061 19.3359 38.6597 17.7979 40.3617 17.7979C42.0771 17.7979 43.4441 19.3494 43.4172 21.2247C43.4172 23.1135 42.0637 24.6515 40.3617 24.6515ZM51.6592 24.6515C49.984 24.6515 48.6037 23.1135 48.6037 21.2247C48.6037 19.3359 49.9572 17.7979 51.6592 17.7979C53.3746 17.7979 54.7416 19.3494 54.7148 21.2247C54.7148 23.1135 53.3746 24.6515 51.6592 24.6515Z" fill="#5865F2"/>
</g>
<path d="M19.51 63C19.3927 63 19.302 62.968 19.238 62.904C19.174 62.8293 19.142 62.7387 19.142 62.632V52.184C19.142 52.0667 19.174 51.976 19.238 51.912C19.302 51.8373 19.3927 51.8 19.51 51.8H23.142C24.2407 51.8 25.126 51.9653 25.798 52.296C26.47 52.6267 26.9607 53.1173 27.27 53.768C27.5793 54.408 27.7393 55.1973 27.75 56.136C27.7607 56.616 27.766 57.0373 27.766 57.4C27.766 57.7627 27.7607 58.1787 27.75 58.648C27.7287 59.6293 27.5633 60.4453 27.254 61.096C26.9553 61.736 26.4753 62.216 25.814 62.536C25.1633 62.8453 24.2993 63 23.222 63H19.51ZM20.71 61.64H23.142C23.878 61.64 24.4647 61.5387 24.902 61.336C25.3393 61.1333 25.654 60.808 25.846 60.36C26.0487 59.912 26.1553 59.32 26.166 58.584C26.1873 58.264 26.198 57.9867 26.198 57.752C26.198 57.5067 26.198 57.2667 26.198 57.032C26.198 56.7867 26.1873 56.5093 26.166 56.2C26.1447 55.1653 25.8993 54.4027 25.43 53.912C24.9607 53.4107 24.1713 53.16 23.062 53.16H20.71V61.64ZM30.3333 63C30.2266 63 30.1359 62.968 30.0613 62.904C29.9973 62.8293 29.9653 62.7387 29.9653 62.632V55.048C29.9653 54.9413 29.9973 54.856 30.0613 54.792C30.1359 54.7173 30.2266 54.68 30.3333 54.68H31.1013C31.2079 54.68 31.2933 54.7173 31.3573 54.792C31.4213 54.856 31.4533 54.9413 31.4533 55.048V62.632C31.4533 62.7387 31.4213 62.8293 31.3573 62.904C31.2933 62.968 31.2079 63 31.1013 63H30.3333ZM30.2053 53.128C30.0986 53.128 30.0079 53.096 29.9333 53.032C29.8693 52.9573 29.8372 52.8667 29.8372 52.76V51.896C29.8372 51.7893 29.8693 51.704 29.9333 51.64C30.0079 51.5653 30.0986 51.528 30.2053 51.528H31.2133C31.3199 51.528 31.4053 51.5653 31.4693 51.64C31.5439 51.704 31.5813 51.7893 31.5813 51.896V52.76C31.5813 52.8667 31.5439 52.9573 31.4693 53.032C31.4053 53.096 31.3199 53.128 31.2133 53.128H30.2053ZM36.7203 63.16C36.1229 63.16 35.6109 63.0853 35.1843 62.936C34.7576 62.7867 34.4109 62.6053 34.1443 62.392C33.8776 62.1787 33.6749 61.9653 33.5363 61.752C33.4083 61.5387 33.3389 61.368 33.3283 61.24C33.3176 61.1227 33.3549 61.032 33.4403 60.968C33.5256 60.904 33.6109 60.872 33.6963 60.872H34.4003C34.4643 60.872 34.5123 60.8827 34.5443 60.904C34.5869 60.9147 34.6403 60.9573 34.7043 61.032C34.8429 61.1813 34.9976 61.3307 35.1683 61.48C35.3389 61.6293 35.5469 61.752 35.7923 61.848C36.0483 61.944 36.3629 61.992 36.7363 61.992C37.2803 61.992 37.7283 61.8907 38.0803 61.688C38.4323 61.4747 38.6083 61.1653 38.6083 60.76C38.6083 60.4933 38.5336 60.28 38.3843 60.12C38.2456 59.96 37.9896 59.816 37.6163 59.688C37.2536 59.56 36.7523 59.4267 36.1123 59.288C35.4723 59.1387 34.9656 58.9573 34.5923 58.744C34.2189 58.52 33.9523 58.2587 33.7923 57.96C33.6323 57.6507 33.5523 57.304 33.5523 56.92C33.5523 56.5253 33.6696 56.1467 33.9043 55.784C34.1389 55.4107 34.4803 55.1067 34.9283 54.872C35.3869 54.6373 35.9576 54.52 36.6403 54.52C37.1949 54.52 37.6696 54.5893 38.0643 54.728C38.4589 54.8667 38.7843 55.0427 39.0403 55.256C39.2963 55.4587 39.4883 55.6613 39.6163 55.864C39.7443 56.0667 39.8136 56.2373 39.8243 56.376C39.8349 56.4827 39.8029 56.5733 39.7283 56.648C39.6536 56.712 39.5683 56.744 39.4723 56.744H38.8003C38.7256 56.744 38.6616 56.728 38.6083 56.696C38.5656 56.664 38.5229 56.6267 38.4803 56.584C38.3736 56.4453 38.2456 56.3067 38.0963 56.168C37.9576 56.0293 37.7709 55.9173 37.5363 55.832C37.3123 55.736 37.0136 55.688 36.6403 55.688C36.1069 55.688 35.7069 55.8 35.4403 56.024C35.1736 56.248 35.0403 56.5307 35.0403 56.872C35.0403 57.0747 35.0989 57.256 35.2163 57.416C35.3336 57.576 35.5576 57.72 35.8883 57.848C36.2189 57.976 36.7096 58.1147 37.3602 58.264C38.0643 58.4027 38.6189 58.5893 39.0243 58.824C39.4296 59.0587 39.7176 59.3307 39.8883 59.64C40.0589 59.9493 40.1443 60.3067 40.1443 60.712C40.1443 61.16 40.0109 61.5707 39.7443 61.944C39.4883 62.3173 39.1043 62.616 38.5923 62.84C38.0909 63.0533 37.4669 63.16 36.7203 63.16ZM45.3565 63.16C44.5992 63.16 43.9432 63.016 43.3885 62.728C42.8445 62.4293 42.4232 62.008 42.1245 61.464C41.8258 60.9093 41.6658 60.248 41.6445 59.48C41.6338 59.32 41.6285 59.1067 41.6285 58.84C41.6285 58.5733 41.6338 58.36 41.6445 58.2C41.6658 57.432 41.8258 56.776 42.1245 56.232C42.4232 55.6773 42.8445 55.256 43.3885 54.968C43.9432 54.6693 44.5992 54.52 45.3565 54.52C45.9752 54.52 46.5032 54.6053 46.9405 54.776C47.3885 54.9467 47.7565 55.1653 48.0445 55.432C48.3325 55.6987 48.5458 55.9867 48.6845 56.296C48.8338 56.6053 48.9138 56.8987 48.9245 57.176C48.9352 57.2827 48.9032 57.368 48.8285 57.432C48.7538 57.496 48.6632 57.528 48.5565 57.528H47.7885C47.6818 57.528 47.6018 57.5067 47.5485 57.464C47.4952 57.4107 47.4418 57.3253 47.3885 57.208C47.1965 56.6853 46.9352 56.3173 46.6045 56.104C46.2738 55.8907 45.8632 55.784 45.3725 55.784C44.7325 55.784 44.2098 55.9813 43.8045 56.376C43.4098 56.7707 43.1965 57.4053 43.1645 58.28C43.1538 58.664 43.1538 59.0373 43.1645 59.4C43.1965 60.2853 43.4098 60.9253 43.8045 61.32C44.2098 61.704 44.7325 61.896 45.3725 61.896C45.8632 61.896 46.2738 61.7893 46.6045 61.576C46.9352 61.3627 47.1965 60.9947 47.3885 60.472C47.4418 60.3547 47.4952 60.2747 47.5485 60.232C47.6018 60.1787 47.6818 60.152 47.7885 60.152H48.5565C48.6632 60.152 48.7538 60.184 48.8285 60.248C48.9032 60.312 48.9352 60.3973 48.9245 60.504C48.9138 60.728 48.8658 60.9573 48.7805 61.192C48.6952 61.4267 48.5565 61.6667 48.3645 61.912C48.1832 62.1467 47.9538 62.36 47.6765 62.552C47.3992 62.7333 47.0632 62.8827 46.6685 63C46.2845 63.1067 45.8472 63.16 45.3565 63.16ZM54.2326 63.16C53.422 63.16 52.7446 63.0053 52.2006 62.696C51.6566 62.3867 51.2406 61.96 50.9526 61.416C50.6646 60.8613 50.5046 60.232 50.4726 59.528C50.462 59.3467 50.4566 59.1173 50.4566 58.84C50.4566 58.552 50.462 58.3227 50.4726 58.152C50.5046 57.4373 50.6646 56.808 50.9526 56.264C51.2513 55.72 51.6726 55.2933 52.2166 54.984C52.7606 54.6747 53.4326 54.52 54.2326 54.52C55.0326 54.52 55.7046 54.6747 56.2486 54.984C56.7926 55.2933 57.2086 55.72 57.4966 56.264C57.7953 56.808 57.9606 57.4373 57.9926 58.152C58.0033 58.3227 58.0086 58.552 58.0086 58.84C58.0086 59.1173 58.0033 59.3467 57.9926 59.528C57.9606 60.232 57.8006 60.8613 57.5126 61.416C57.2246 61.96 56.8086 62.3867 56.2646 62.696C55.7206 63.0053 55.0433 63.16 54.2326 63.16ZM54.2326 61.928C54.894 61.928 55.422 61.72 55.8166 61.304C56.2113 60.8773 56.4246 60.2587 56.4566 59.448C56.4673 59.288 56.4726 59.0853 56.4726 58.84C56.4726 58.5947 56.4673 58.392 56.4566 58.232C56.4246 57.4213 56.2113 56.808 55.8166 56.392C55.422 55.9653 54.894 55.752 54.2326 55.752C53.5713 55.752 53.038 55.9653 52.6326 56.392C52.238 56.808 52.03 57.4213 52.0086 58.232C51.998 58.392 51.9926 58.5947 51.9926 58.84C51.9926 59.0853 51.998 59.288 52.0086 59.448C52.03 60.2587 52.238 60.8773 52.6326 61.304C53.038 61.72 53.5713 61.928 54.2326 61.928ZM60.3801 63C60.2735 63 60.1828 62.968 60.1081 62.904C60.0441 62.8293 60.0121 62.7387 60.0121 62.632V55.064C60.0121 54.9573 60.0441 54.8667 60.1081 54.792C60.1828 54.7173 60.2735 54.68 60.3801 54.68H61.1161C61.2228 54.68 61.3135 54.7173 61.3881 54.792C61.4628 54.8667 61.5001 54.9573 61.5001 55.064V55.768C61.7135 55.4053 62.0068 55.1333 62.3801 54.952C62.7535 54.7707 63.2015 54.68 63.7241 54.68H64.3641C64.4708 54.68 64.5561 54.7173 64.6201 54.792C64.6841 54.856 64.7161 54.9413 64.7161 55.048V55.704C64.7161 55.8107 64.6841 55.896 64.6201 55.96C64.5561 56.024 64.4708 56.056 64.3641 56.056H63.4041C62.8281 56.056 62.3748 56.2267 62.0441 56.568C61.7135 56.8987 61.5481 57.352 61.5481 57.928V62.632C61.5481 62.7387 61.5108 62.8293 61.4361 62.904C61.3615 62.968 61.2708 63 61.1641 63H60.3801ZM68.9584 63.16C68.3717 63.16 67.865 63.0587 67.4384 62.856C67.0117 62.6427 66.6597 62.36 66.3824 62.008C66.1157 61.6453 65.913 61.2347 65.7744 60.776C65.6464 60.3173 65.5717 59.832 65.5504 59.32C65.5397 59.1493 65.5344 58.9893 65.5344 58.84C65.5344 58.6907 65.5397 58.5307 65.5504 58.36C65.5717 57.8587 65.6464 57.3787 65.7744 56.92C65.913 56.4613 66.1157 56.0507 66.3824 55.688C66.6597 55.3253 67.0117 55.0427 67.4384 54.84C67.865 54.6267 68.3717 54.52 68.9584 54.52C69.5877 54.52 70.1104 54.632 70.5264 54.856C70.9424 55.08 71.2837 55.3573 71.5504 55.688V52.008C71.5504 51.9013 71.5824 51.816 71.6464 51.752C71.721 51.6773 71.8117 51.64 71.9184 51.64H72.6864C72.793 51.64 72.8784 51.6773 72.9424 51.752C73.017 51.816 73.0544 51.9013 73.0544 52.008V62.632C73.0544 62.7387 73.017 62.8293 72.9424 62.904C72.8784 62.968 72.793 63 72.6864 63H71.9664C71.849 63 71.7584 62.968 71.6944 62.904C71.6304 62.8293 71.5984 62.7387 71.5984 62.632V61.96C71.3317 62.3013 70.985 62.5893 70.5584 62.824C70.1317 63.048 69.5984 63.16 68.9584 63.16ZM69.2944 61.864C69.8277 61.864 70.2544 61.7413 70.5744 61.496C70.8944 61.2507 71.1344 60.9413 71.2944 60.568C71.4544 60.184 71.5397 59.7947 71.5504 59.4C71.561 59.2293 71.5664 59.0267 71.5664 58.792C71.5664 58.5467 71.561 58.3387 71.5504 58.168C71.5397 57.7947 71.449 57.4267 71.2784 57.064C71.1184 56.7013 70.873 56.4027 70.5424 56.168C70.2224 55.9333 69.8064 55.816 69.2944 55.816C68.7504 55.816 68.3184 55.9387 67.9984 56.184C67.6784 56.4187 67.449 56.7333 67.3104 57.128C67.1717 57.512 67.0917 57.928 67.0704 58.376C67.0597 58.6853 67.0597 58.9947 67.0704 59.304C67.0917 59.752 67.1717 60.1733 67.3104 60.568C67.449 60.952 67.6784 61.2667 67.9984 61.512C68.3184 61.7467 68.7504 61.864 69.2944 61.864Z" fill="white"/>
<defs>
<clipPath id="clip0_1748_4503">
<rect width="34" height="26.338" fill="white" transform="translate(29 6.77734)"/>
</clipPath>
</defs>
</svg>
