<svg width="92" height="67" viewBox="0 0 92 67" fill="none" xmlns="http://www.w3.org/2000/svg">
<g clip-path="url(#clip0_1748_4507)">
<g clip-path="url(#clip1_1748_4507)">
<path d="M58.2698 30.4499C44.5067 37 35.9652 31.5198 30.4974 28.1912C30.1591 27.9814 29.584 28.2402 30.083 28.8133C31.9045 31.022 37.8742 36.3456 45.6664 36.3456C53.4639 36.3456 58.1027 32.0909 58.683 31.3487C59.2594 30.6128 58.8522 30.2068 58.2697 30.4499H58.2698ZM62.1352 28.3153C61.7656 27.834 59.8878 27.7443 58.706 27.8894C57.5224 28.0304 55.7458 28.7538 55.9003 29.1881C55.9795 29.3508 56.1413 29.2778 56.9544 29.2047C57.7697 29.1234 60.0538 28.8351 60.5297 29.4573C61.0078 30.0837 59.8012 33.068 59.5808 33.5493C59.3679 34.0306 59.6622 34.1547 60.0621 33.8341C60.4566 33.5137 61.1707 32.6839 61.6499 31.5096C62.1258 30.3288 62.416 28.6817 62.1351 28.3153H62.1352Z" fill="#FF9900"/>
<path fill-rule="evenodd" clip-rule="evenodd" d="M49.0155 17.0845C49.0155 18.8031 49.059 20.2364 48.1903 21.7627C47.4892 23.0037 46.3785 23.7668 45.1376 23.7668C43.4437 23.7668 42.4572 22.4762 42.4572 20.5715C42.4572 16.8114 45.8262 16.129 49.0155 16.129V17.0845ZM53.4642 27.8371C53.1725 28.0976 52.7506 28.1163 52.4218 27.9425C50.9576 26.7265 50.6969 26.1619 49.8904 25.0015C47.4706 27.471 45.7581 28.2093 42.6186 28.2093C38.9082 28.2093 36.0168 25.9198 36.0168 21.3346C36.0168 17.7546 37.959 15.3161 40.7199 14.1249C43.1149 13.07 46.4592 12.8839 49.0155 12.5924V12.0215C49.0155 10.9729 49.0961 9.73202 48.4819 8.8262C47.9421 8.01337 46.9121 7.6783 46.0062 7.6783C44.3248 7.6783 42.8233 8.5407 42.4572 10.3276C42.3827 10.7248 42.0911 11.1157 41.6941 11.1343L37.4128 10.6752C37.0531 10.5944 36.656 10.3029 36.7553 9.75059C37.7418 4.56366 42.4261 3 46.6204 3C48.7672 3 51.5716 3.57088 53.2655 5.19653C55.4124 7.20055 55.2076 9.8747 55.2076 12.7847V19.6594C55.2076 21.7255 56.0638 22.6313 56.8704 23.7482C57.1557 24.1453 57.2178 24.6232 56.8579 24.9208C55.9583 25.6715 54.3575 27.0677 53.4765 27.8495L53.4641 27.8371" fill="white"/>
<path d="M58.2698 30.4499C44.5067 37 35.9652 31.5198 30.4974 28.1912C30.1591 27.9814 29.584 28.2402 30.083 28.8133C31.9045 31.022 37.8742 36.3456 45.6664 36.3456C53.4639 36.3456 58.1027 32.0909 58.683 31.3487C59.2594 30.6128 58.8522 30.2068 58.2697 30.4499H58.2698ZM62.1352 28.3153C61.7656 27.834 59.8878 27.7443 58.706 27.8894C57.5224 28.0304 55.7458 28.7538 55.9003 29.1881C55.9795 29.3508 56.1413 29.2778 56.9544 29.2047C57.7697 29.1234 60.0538 28.8351 60.5297 29.4573C61.0078 30.0837 59.8012 33.068 59.5808 33.5493C59.3679 34.0306 59.6622 34.1547 60.0621 33.8341C60.4566 33.5137 61.1707 32.6839 61.6499 31.5096C62.1258 30.3288 62.416 28.6817 62.1351 28.3153H62.1352Z" fill="#FF9900"/>
<path fill-rule="evenodd" clip-rule="evenodd" d="M49.0155 17.0845C49.0155 18.8031 49.059 20.2364 48.1903 21.7627C47.4892 23.0037 46.3785 23.7668 45.1376 23.7668C43.4437 23.7668 42.4572 22.4762 42.4572 20.5715C42.4572 16.8114 45.8262 16.129 49.0155 16.129V17.0845ZM53.4642 27.8371C53.1725 28.0976 52.7506 28.1163 52.4218 27.9425C50.9576 26.7265 50.6969 26.1619 49.8904 25.0015C47.4706 27.471 45.7581 28.2093 42.6186 28.2093C38.9082 28.2093 36.0168 25.9198 36.0168 21.3346C36.0168 17.7546 37.959 15.3161 40.7199 14.1249C43.1149 13.07 46.4592 12.8839 49.0155 12.5924V12.0215C49.0155 10.9729 49.0961 9.73202 48.4819 8.8262C47.9421 8.01337 46.9121 7.6783 46.0062 7.6783C44.3248 7.6783 42.8233 8.5407 42.4572 10.3276C42.3827 10.7248 42.0911 11.1157 41.6941 11.1343L37.4128 10.6752C37.0531 10.5944 36.656 10.3029 36.7553 9.75059C37.7418 4.56366 42.4261 3 46.6204 3C48.7672 3 51.5716 3.57088 53.2655 5.19653C55.4124 7.20055 55.2076 9.8747 55.2076 12.7847V19.6594C55.2076 21.7255 56.0638 22.6313 56.8704 23.7482C57.1557 24.1453 57.2178 24.6232 56.8579 24.9208C55.9583 25.6715 54.3575 27.0677 53.4765 27.8495L53.4641 27.8371" fill="white"/>
</g>
</g>
<path d="M16.2884 63C16.2031 63 16.1284 62.968 16.0644 62.904C16.0004 62.84 15.9684 62.7653 15.9684 62.68C15.9684 62.6267 15.9738 62.568 15.9844 62.504L19.9524 52.152C19.9951 52.0453 20.0538 51.96 20.1284 51.896C20.2031 51.832 20.3151 51.8 20.4644 51.8H21.5524C21.6911 51.8 21.7978 51.832 21.8724 51.896C21.9578 51.96 22.0218 52.0453 22.0644 52.152L26.0164 62.504C26.0378 62.568 26.0484 62.6267 26.0484 62.68C26.0484 62.7653 26.0164 62.84 25.9524 62.904C25.8884 62.968 25.8138 63 25.7284 63H24.9124C24.7844 63 24.6884 62.968 24.6244 62.904C24.5711 62.84 24.5338 62.7813 24.5124 62.728L23.6324 60.456H18.3844L17.5044 62.728C17.4938 62.7813 17.4564 62.84 17.3924 62.904C17.3284 62.968 17.2324 63 17.1044 63H16.2884ZM18.8484 59.08H23.1684L21.0084 53.4L18.8484 59.08ZM27.9192 63C27.8125 63 27.7219 62.968 27.6472 62.904C27.5832 62.8293 27.5512 62.7387 27.5512 62.632V55.048C27.5512 54.9413 27.5832 54.856 27.6472 54.792C27.7219 54.7173 27.8125 54.68 27.9192 54.68H28.6392C28.7459 54.68 28.8312 54.7173 28.8952 54.792C28.9699 54.856 29.0072 54.9413 29.0072 55.048V55.608C29.2525 55.2773 29.5619 55.016 29.9352 54.824C30.3085 54.6213 30.7565 54.52 31.2792 54.52C32.4845 54.5093 33.3379 55 33.8392 55.992C34.0845 55.544 34.4419 55.1867 34.9112 54.92C35.3805 54.6533 35.9139 54.52 36.5112 54.52C37.0659 54.52 37.5672 54.648 38.0152 54.904C38.4739 55.16 38.8312 55.5493 39.0872 56.072C39.3539 56.584 39.4872 57.2293 39.4872 58.008V62.632C39.4872 62.7387 39.4499 62.8293 39.3752 62.904C39.3112 62.968 39.2259 63 39.1192 63H38.3672C38.2605 63 38.1699 62.968 38.0952 62.904C38.0312 62.8293 37.9992 62.7387 37.9992 62.632V58.152C37.9992 57.5547 37.9139 57.0853 37.7432 56.744C37.5725 56.4027 37.3432 56.1627 37.0552 56.024C36.7672 55.8853 36.4525 55.816 36.1112 55.816C35.8339 55.816 35.5512 55.8853 35.2632 56.024C34.9752 56.1627 34.7352 56.4027 34.5432 56.744C34.3619 57.0853 34.2712 57.5547 34.2712 58.152V62.632C34.2712 62.7387 34.2339 62.8293 34.1592 62.904C34.0952 62.968 34.0099 63 33.9032 63H33.1512C33.0445 63 32.9539 62.968 32.8792 62.904C32.8152 62.8293 32.7832 62.7387 32.7832 62.632V58.152C32.7832 57.5547 32.6925 57.0853 32.5112 56.744C32.3299 56.4027 32.0952 56.1627 31.8072 56.024C31.5192 55.8853 31.2152 55.816 30.8952 55.816C30.6179 55.816 30.3352 55.8853 30.0472 56.024C29.7592 56.1627 29.5192 56.4027 29.3272 56.744C29.1459 57.0853 29.0552 57.5493 29.0552 58.136V62.632C29.0552 62.7387 29.0179 62.8293 28.9432 62.904C28.8792 62.968 28.7939 63 28.6872 63H27.9192ZM44.0899 63.16C43.5566 63.16 43.0713 63.0533 42.6339 62.84C42.1966 62.6267 41.8446 62.3387 41.5779 61.976C41.3113 61.6133 41.1779 61.2027 41.1779 60.744C41.1779 60.008 41.4766 59.4213 42.0739 58.984C42.6713 58.5467 43.4499 58.2587 44.4099 58.12L46.7939 57.784V57.32C46.7939 56.808 46.6446 56.408 46.3459 56.12C46.0579 55.832 45.5833 55.688 44.9219 55.688C44.4419 55.688 44.0526 55.784 43.7539 55.976C43.4659 56.168 43.2633 56.4133 43.1459 56.712C43.0819 56.872 42.9699 56.952 42.8099 56.952H42.0899C41.9726 56.952 41.8819 56.92 41.8179 56.856C41.7646 56.7813 41.7379 56.696 41.7379 56.6C41.7379 56.44 41.7966 56.2427 41.9139 56.008C42.0419 55.7733 42.2339 55.544 42.4899 55.32C42.7459 55.096 43.0713 54.9093 43.4659 54.76C43.8713 54.6 44.3619 54.52 44.9379 54.52C45.5779 54.52 46.1166 54.6053 46.5539 54.776C46.9913 54.936 47.3326 55.1547 47.5779 55.432C47.8339 55.7093 48.0153 56.024 48.1219 56.376C48.2393 56.728 48.2979 57.0853 48.2979 57.448V62.632C48.2979 62.7387 48.2606 62.8293 48.1859 62.904C48.1219 62.968 48.0366 63 47.9299 63H47.1939C47.0766 63 46.9859 62.968 46.9219 62.904C46.8579 62.8293 46.8259 62.7387 46.8259 62.632V61.944C46.6873 62.136 46.5006 62.328 46.2659 62.52C46.0313 62.7013 45.7379 62.856 45.3859 62.984C45.0339 63.1013 44.6019 63.16 44.0899 63.16ZM44.4259 61.96C44.8633 61.96 45.2633 61.8693 45.6259 61.688C45.9886 61.496 46.2713 61.2027 46.4739 60.808C46.6873 60.4133 46.7939 59.9173 46.7939 59.32V58.872L44.9379 59.144C44.1806 59.2507 43.6099 59.432 43.2259 59.688C42.8419 59.9333 42.6499 60.248 42.6499 60.632C42.6499 60.9307 42.7353 61.1813 42.9059 61.384C43.0873 61.576 43.3113 61.72 43.5779 61.816C43.8553 61.912 44.1379 61.96 44.4259 61.96ZM50.4381 63C50.3314 63 50.2407 62.968 50.1661 62.904C50.1021 62.8293 50.0701 62.7387 50.0701 62.632V62.072C50.0701 61.976 50.0914 61.8853 50.1341 61.8C50.1874 61.7147 50.2407 61.6347 50.2941 61.56L54.7101 55.944H50.5821C50.4754 55.944 50.3847 55.912 50.3101 55.848C50.2461 55.784 50.2141 55.6933 50.2141 55.576V55.048C50.2141 54.9413 50.2461 54.856 50.3101 54.792C50.3847 54.7173 50.4754 54.68 50.5821 54.68H56.2781C56.3847 54.68 56.4701 54.7173 56.5341 54.792C56.6087 54.856 56.6461 54.9413 56.6461 55.048V55.64C56.6461 55.736 56.6194 55.8213 56.5661 55.896C56.5234 55.9707 56.4754 56.0507 56.4221 56.136L52.0541 61.736H56.5981C56.7047 61.736 56.7901 61.768 56.8541 61.832C56.9287 61.896 56.9661 61.9867 56.9661 62.104V62.632C56.9661 62.7387 56.9287 62.8293 56.8541 62.904C56.7901 62.968 56.7047 63 56.5981 63H50.4381ZM62.0529 63.16C61.2423 63.16 60.5649 63.0053 60.0209 62.696C59.4769 62.3867 59.0609 61.96 58.7729 61.416C58.4849 60.8613 58.3249 60.232 58.2929 59.528C58.2823 59.3467 58.2769 59.1173 58.2769 58.84C58.2769 58.552 58.2823 58.3227 58.2929 58.152C58.3249 57.4373 58.4849 56.808 58.7729 56.264C59.0716 55.72 59.4929 55.2933 60.0369 54.984C60.5809 54.6747 61.2529 54.52 62.0529 54.52C62.8529 54.52 63.5249 54.6747 64.0689 54.984C64.6129 55.2933 65.0289 55.72 65.3169 56.264C65.6156 56.808 65.7809 57.4373 65.8129 58.152C65.8236 58.3227 65.8289 58.552 65.8289 58.84C65.8289 59.1173 65.8236 59.3467 65.8129 59.528C65.7809 60.232 65.6209 60.8613 65.3329 61.416C65.0449 61.96 64.6289 62.3867 64.0849 62.696C63.5409 63.0053 62.8636 63.16 62.0529 63.16ZM62.0529 61.928C62.7143 61.928 63.2423 61.72 63.6369 61.304C64.0316 60.8773 64.2449 60.2587 64.2769 59.448C64.2876 59.288 64.2929 59.0853 64.2929 58.84C64.2929 58.5947 64.2876 58.392 64.2769 58.232C64.2449 57.4213 64.0316 56.808 63.6369 56.392C63.2423 55.9653 62.7143 55.752 62.0529 55.752C61.3916 55.752 60.8583 55.9653 60.4529 56.392C60.0583 56.808 59.8503 57.4213 59.8289 58.232C59.8183 58.392 59.8129 58.5947 59.8129 58.84C59.8129 59.0853 59.8183 59.288 59.8289 59.448C59.8503 60.2587 60.0583 60.8773 60.4529 61.304C60.8583 61.72 61.3916 61.928 62.0529 61.928ZM68.2004 63C68.0938 63 68.0031 62.968 67.9284 62.904C67.8644 62.8293 67.8324 62.7387 67.8324 62.632V55.048C67.8324 54.9413 67.8644 54.856 67.9284 54.792C68.0031 54.7173 68.0938 54.68 68.2004 54.68H68.9524C69.0591 54.68 69.1444 54.7173 69.2084 54.792C69.2831 54.856 69.3204 54.9413 69.3204 55.048V55.752C69.5978 55.3893 69.9444 55.096 70.3604 54.872C70.7871 54.6373 71.3311 54.52 71.9924 54.52C72.6858 54.52 73.2724 54.6747 73.7524 54.984C74.2431 55.2827 74.6111 55.704 74.8564 56.248C75.1018 56.7813 75.2244 57.4053 75.2244 58.12V62.632C75.2244 62.7387 75.1924 62.8293 75.1284 62.904C75.0644 62.968 74.9791 63 74.8724 63H74.0724C73.9658 63 73.8751 62.968 73.8004 62.904C73.7364 62.8293 73.7044 62.7387 73.7044 62.632V58.2C73.7044 57.4533 73.5231 56.872 73.1604 56.456C72.7978 56.0293 72.2644 55.816 71.5604 55.816C70.8991 55.816 70.3658 56.0293 69.9604 56.456C69.5658 56.872 69.3684 57.4533 69.3684 58.2V62.632C69.3684 62.7387 69.3311 62.8293 69.2564 62.904C69.1924 62.968 69.1071 63 69.0004 63H68.2004Z" fill="white"/>
<defs>
<clipPath id="clip0_1748_4507">
<rect width="34" height="34" fill="white" transform="translate(29 3)"/>
</clipPath>
<clipPath id="clip1_1748_4507">
<rect width="34" height="34" fill="white" transform="translate(29 3)"/>
</clipPath>
</defs>
</svg>
