<svg width="92" height="67" viewBox="0 0 92 67" fill="none" xmlns="http://www.w3.org/2000/svg">
<g clip-path="url(#clip0_1748_4491)">
<path d="M50.2499 20.0074C50.2505 21.2334 50.0293 22.4493 49.5971 23.5966C48.4494 24.0287 47.2332 24.2502 46.0069 24.2504H45.9926C44.7298 24.2488 43.5199 24.018 42.4034 23.5971C41.971 22.4497 41.7496 21.2336 41.75 20.0074V19.9926C41.7494 18.7668 41.9703 17.5511 42.4021 16.404C43.5497 15.971 44.7662 15.7495 45.9927 15.75H46.007C47.2334 15.7494 48.4498 15.9709 49.5972 16.4038C50.0295 17.5509 50.2506 18.7667 50.25 19.9924V20.0073L50.2499 20.0074ZM62.7639 17.1667H52.8406L59.857 10.1498C59.3063 9.37622 58.692 8.64991 58.0205 7.97848V7.97795C57.3489 7.30723 56.6228 6.69347 55.8496 6.14301L48.8328 13.1599V3.23667C47.8995 3.07968 46.9548 3.00051 46.0085 3L45.991 3C45.0283 3.00053 44.0855 3.08234 43.1667 3.23667V13.1599L36.1498 6.14301C35.3765 6.69332 34.6507 7.30752 33.9801 7.97914L33.9764 7.9818C33.306 8.6524 32.6925 9.37757 32.1423 10.1498L39.1598 17.1667H29.2367C29.2367 17.1667 29 19.0305 29 19.9942V20.0058C29 20.9695 29.0817 21.914 29.2367 22.8333H39.1599L32.1425 29.8502C33.2464 31.3993 34.6007 32.7536 36.1498 33.8575L43.1667 26.8401V36.7639C44.0989 36.9201 45.0424 36.9991 45.9876 37H46.0117C46.9569 36.9991 47.9004 36.9202 48.8326 36.7639V26.8401L55.8502 33.8575C56.6232 33.3069 57.3491 32.6929 58.0205 32.0221L58.0221 32.0205C58.6926 31.349 59.3064 30.6231 59.857 29.8502L52.8396 22.8333H62.7639C62.9183 21.9156 62.9989 20.9739 63 20.0124V19.9876C62.9989 19.0261 62.9183 18.0844 62.7639 17.1667Z" fill="#FF4A00"/>
</g>
<path d="M23.5943 63C23.477 63 23.3863 62.9627 23.3223 62.888C23.2583 62.8133 23.2263 62.7227 23.2263 62.616V61.928C23.2263 61.768 23.2583 61.64 23.3223 61.544C23.3863 61.448 23.4343 61.3787 23.4663 61.336L29.4183 53.192H23.7383C23.6316 53.192 23.541 53.16 23.4663 53.096C23.4023 53.0213 23.3703 52.9307 23.3703 52.824V52.184C23.3703 52.0667 23.4023 51.976 23.4663 51.912C23.541 51.8373 23.6316 51.8 23.7383 51.8H30.9863C31.1036 51.8 31.1943 51.8373 31.2583 51.912C31.3223 51.976 31.3543 52.0667 31.3543 52.184V52.872C31.3543 53 31.333 53.1067 31.2903 53.192C31.2583 53.2773 31.2103 53.3573 31.1463 53.432L25.2583 61.608H31.1463C31.2636 61.608 31.3543 61.6453 31.4183 61.72C31.493 61.784 31.5303 61.8747 31.5303 61.992V62.632C31.5303 62.7387 31.493 62.8293 31.4183 62.904C31.3543 62.968 31.2636 63 31.1463 63H23.5943ZM35.6681 63.16C35.1347 63.16 34.6494 63.0533 34.2121 62.84C33.7747 62.6267 33.4227 62.3387 33.1561 61.976C32.8894 61.6133 32.7561 61.2027 32.7561 60.744C32.7561 60.008 33.0547 59.4213 33.6521 58.984C34.2494 58.5467 35.0281 58.2587 35.9881 58.12L38.3721 57.784V57.32C38.3721 56.808 38.2227 56.408 37.9241 56.12C37.6361 55.832 37.1614 55.688 36.5001 55.688C36.0201 55.688 35.6307 55.784 35.3321 55.976C35.0441 56.168 34.8414 56.4133 34.7241 56.712C34.6601 56.872 34.5481 56.952 34.3881 56.952H33.6681C33.5507 56.952 33.4601 56.92 33.3961 56.856C33.3427 56.7813 33.3161 56.696 33.3161 56.6C33.3161 56.44 33.3747 56.2427 33.4921 56.008C33.6201 55.7733 33.8121 55.544 34.0681 55.32C34.3241 55.096 34.6494 54.9093 35.0441 54.76C35.4494 54.6 35.9401 54.52 36.5161 54.52C37.1561 54.52 37.6947 54.6053 38.1321 54.776C38.5694 54.936 38.9107 55.1547 39.1561 55.432C39.4121 55.7093 39.5934 56.024 39.7001 56.376C39.8174 56.728 39.8761 57.0853 39.8761 57.448V62.632C39.8761 62.7387 39.8387 62.8293 39.7641 62.904C39.7001 62.968 39.6147 63 39.5081 63H38.7721C38.6547 63 38.5641 62.968 38.5001 62.904C38.4361 62.8293 38.4041 62.7387 38.4041 62.632V61.944C38.2654 62.136 38.0787 62.328 37.8441 62.52C37.6094 62.7013 37.3161 62.856 36.9641 62.984C36.6121 63.1013 36.1801 63.16 35.6681 63.16ZM36.0041 61.96C36.4414 61.96 36.8414 61.8693 37.2041 61.688C37.5667 61.496 37.8494 61.2027 38.0521 60.808C38.2654 60.4133 38.3721 59.9173 38.3721 59.32V58.872L36.5161 59.144C35.7587 59.2507 35.1881 59.432 34.8041 59.688C34.4201 59.9333 34.2281 60.248 34.2281 60.632C34.2281 60.9307 34.3134 61.1813 34.4841 61.384C34.6654 61.576 34.8894 61.72 35.1561 61.816C35.4334 61.912 35.7161 61.96 36.0041 61.96ZM42.5602 66.04C42.4535 66.04 42.3629 66.0027 42.2882 65.928C42.2242 65.864 42.1922 65.7787 42.1922 65.672V55.048C42.1922 54.9413 42.2242 54.856 42.2882 54.792C42.3629 54.7173 42.4535 54.68 42.5602 54.68H43.2962C43.4029 54.68 43.4882 54.7173 43.5522 54.792C43.6269 54.856 43.6642 54.9413 43.6642 55.048V55.752C43.9202 55.4 44.2615 55.1067 44.6882 54.872C45.1149 54.6373 45.6482 54.52 46.2882 54.52C46.8855 54.52 47.3922 54.6213 47.8082 54.824C48.2349 55.0267 48.5815 55.304 48.8482 55.656C49.1255 56.008 49.3335 56.408 49.4722 56.856C49.6109 57.304 49.6855 57.784 49.6962 58.296C49.7069 58.4667 49.7122 58.648 49.7122 58.84C49.7122 59.032 49.7069 59.2133 49.6962 59.384C49.6855 59.8853 49.6109 60.3653 49.4722 60.824C49.3335 61.272 49.1255 61.672 48.8482 62.024C48.5815 62.3653 48.2349 62.6427 47.8082 62.856C47.3922 63.0587 46.8855 63.16 46.2882 63.16C45.6695 63.16 45.1469 63.048 44.7202 62.824C44.3042 62.5893 43.9629 62.3013 43.6962 61.96V65.672C43.6962 65.7787 43.6642 65.864 43.6002 65.928C43.5362 66.0027 43.4455 66.04 43.3282 66.04H42.5602ZM45.9522 61.864C46.5069 61.864 46.9389 61.7467 47.2482 61.512C47.5682 61.2667 47.7975 60.952 47.9362 60.568C48.0749 60.1733 48.1549 59.752 48.1762 59.304C48.1869 58.9947 48.1869 58.6853 48.1762 58.376C48.1549 57.928 48.0749 57.512 47.9362 57.128C47.7975 56.7333 47.5682 56.4187 47.2482 56.184C46.9389 55.9387 46.5069 55.816 45.9522 55.816C45.4295 55.816 45.0029 55.9387 44.6722 56.184C44.3522 56.4293 44.1122 56.744 43.9522 57.128C43.8029 57.5013 43.7175 57.8853 43.6962 58.28C43.6855 58.4507 43.6802 58.6533 43.6802 58.888C43.6802 59.1227 43.6855 59.3307 43.6962 59.512C43.7069 59.8853 43.7922 60.2533 43.9522 60.616C44.1229 60.9787 44.3735 61.2773 44.7042 61.512C45.0349 61.7467 45.4509 61.864 45.9522 61.864ZM52.0754 63C51.9688 63 51.8781 62.968 51.8034 62.904C51.7394 62.8293 51.7074 62.7387 51.7074 62.632V55.048C51.7074 54.9413 51.7394 54.856 51.8034 54.792C51.8781 54.7173 51.9688 54.68 52.0754 54.68H52.8434C52.9501 54.68 53.0354 54.7173 53.0994 54.792C53.1634 54.856 53.1954 54.9413 53.1954 55.048V62.632C53.1954 62.7387 53.1634 62.8293 53.0994 62.904C53.0354 62.968 52.9501 63 52.8434 63H52.0754ZM51.9474 53.128C51.8408 53.128 51.7501 53.096 51.6754 53.032C51.6114 52.9573 51.5794 52.8667 51.5794 52.76V51.896C51.5794 51.7893 51.6114 51.704 51.6754 51.64C51.7501 51.5653 51.8408 51.528 51.9474 51.528H52.9554C53.0621 51.528 53.1474 51.5653 53.2114 51.64C53.2861 51.704 53.3234 51.7893 53.3234 51.896V52.76C53.3234 52.8667 53.2861 52.9573 53.2114 53.032C53.1474 53.096 53.0621 53.128 52.9554 53.128H51.9474ZM58.8944 63.16C57.7958 63.16 56.9211 62.824 56.2704 62.152C55.6198 61.4693 55.2624 60.5413 55.1984 59.368C55.1878 59.2293 55.1824 59.0533 55.1824 58.84C55.1824 58.616 55.1878 58.4347 55.1984 58.296C55.2411 57.5387 55.4171 56.8773 55.7264 56.312C56.0358 55.736 56.4571 55.2933 56.9904 54.984C57.5344 54.6747 58.1691 54.52 58.8944 54.52C59.7051 54.52 60.3824 54.6907 60.9264 55.032C61.4811 55.3733 61.9024 55.8587 62.1904 56.488C62.4784 57.1173 62.6224 57.8533 62.6224 58.696V58.968C62.6224 59.0853 62.5851 59.176 62.5104 59.24C62.4464 59.304 62.3611 59.336 62.2544 59.336H56.7184C56.7184 59.3467 56.7184 59.368 56.7184 59.4C56.7184 59.432 56.7184 59.4587 56.7184 59.48C56.7398 59.9173 56.8358 60.328 57.0064 60.712C57.1771 61.0853 57.4224 61.3893 57.7424 61.624C58.0624 61.8587 58.4464 61.976 58.8944 61.976C59.2784 61.976 59.5984 61.9173 59.8544 61.8C60.1104 61.6827 60.3184 61.5547 60.4784 61.416C60.6384 61.2667 60.7451 61.1547 60.7984 61.08C60.8944 60.9413 60.9691 60.8613 61.0224 60.84C61.0758 60.808 61.1611 60.792 61.2784 60.792H62.0464C62.1531 60.792 62.2384 60.824 62.3024 60.888C62.3771 60.9413 62.4091 61.0213 62.3984 61.128C62.3878 61.288 62.3024 61.4853 62.1424 61.72C61.9824 61.944 61.7531 62.168 61.4544 62.392C61.1558 62.616 60.7931 62.8027 60.3664 62.952C59.9398 63.0907 59.4491 63.16 58.8944 63.16ZM56.7184 58.232H61.1024V58.184C61.1024 57.704 61.0118 57.2773 60.8304 56.904C60.6598 56.5307 60.4091 56.2373 60.0784 56.024C59.7478 55.8 59.3531 55.688 58.8944 55.688C58.4358 55.688 58.0411 55.8 57.7104 56.024C57.3904 56.2373 57.1451 56.5307 56.9744 56.904C56.8038 57.2773 56.7184 57.704 56.7184 58.184V58.232ZM64.9036 63C64.7969 63 64.7062 62.968 64.6316 62.904C64.5676 62.8293 64.5356 62.7387 64.5356 62.632V55.064C64.5356 54.9573 64.5676 54.8667 64.6316 54.792C64.7062 54.7173 64.7969 54.68 64.9036 54.68H65.6396C65.7462 54.68 65.8369 54.7173 65.9116 54.792C65.9862 54.8667 66.0236 54.9573 66.0236 55.064V55.768C66.2369 55.4053 66.5302 55.1333 66.9036 54.952C67.2769 54.7707 67.7249 54.68 68.2476 54.68H68.8876C68.9942 54.68 69.0796 54.7173 69.1436 54.792C69.2076 54.856 69.2396 54.9413 69.2396 55.048V55.704C69.2396 55.8107 69.2076 55.896 69.1436 55.96C69.0796 56.024 68.9942 56.056 68.8876 56.056H67.9276C67.3516 56.056 66.8982 56.2267 66.5676 56.568C66.2369 56.8987 66.0716 57.352 66.0716 57.928V62.632C66.0716 62.7387 66.0342 62.8293 65.9596 62.904C65.8849 62.968 65.7942 63 65.6876 63H64.9036Z" fill="white"/>
<defs>
<clipPath id="clip0_1748_4491">
<rect width="34" height="34" fill="white" transform="translate(29 3)"/>
</clipPath>
</defs>
</svg>
