<svg width="92" height="67" viewBox="0 0 92 67" fill="none" xmlns="http://www.w3.org/2000/svg">
<g clip-path="url(#clip0_1748_4495)">
<path d="M59.6 3H32.4C30.5222 3 29 4.52223 29 6.4V33.6C29 35.4778 30.5222 37 32.4 37H59.6C61.4778 37 63 35.4778 63 33.6V6.4C63 4.52223 61.4778 3 59.6 3Z" fill="#6772E5"/>
<path fill-rule="evenodd" clip-rule="evenodd" d="M44.4812 15.7169C44.4812 14.8329 45.2066 14.4929 46.4079 14.4929C48.1306 14.4929 50.3066 15.0142 52.0292 15.9436V10.6169C50.1479 9.86889 48.2892 9.57422 46.4079 9.57422C41.8066 9.57422 38.7466 11.9769 38.7466 15.9889C38.7466 22.2449 47.3599 21.2476 47.3599 23.9449C47.3599 24.9876 46.4532 25.3276 45.1839 25.3276C43.3026 25.3276 40.8999 24.5569 38.9959 23.5142V28.9089C41.1039 29.8155 43.2346 30.2009 45.1839 30.2009C49.8986 30.2009 53.1399 27.8662 53.1399 23.8089C53.1172 17.0542 44.4812 18.2556 44.4812 15.7169Z" fill="white"/>
</g>
<path d="M28.6717 63.16C27.7437 63.16 26.965 63.0213 26.3357 62.744C25.7064 62.456 25.221 62.088 24.8797 61.64C24.549 61.1813 24.373 60.696 24.3517 60.184C24.3517 60.0987 24.3837 60.024 24.4477 59.96C24.5224 59.8853 24.6077 59.848 24.7037 59.848H25.5197C25.6477 59.848 25.7437 59.88 25.8077 59.944C25.8717 60.008 25.9144 60.0827 25.9357 60.168C25.989 60.424 26.117 60.68 26.3197 60.936C26.533 61.1813 26.8264 61.3893 27.1997 61.56C27.5837 61.72 28.0744 61.8 28.6717 61.8C29.589 61.8 30.261 61.64 30.6877 61.32C31.125 60.9893 31.3437 60.552 31.3437 60.008C31.3437 59.6347 31.2264 59.336 30.9917 59.112C30.7677 58.8773 30.421 58.6693 29.9517 58.488C29.4824 58.3067 28.8744 58.1093 28.1277 57.896C27.349 57.672 26.7037 57.4267 26.1917 57.16C25.6797 56.8933 25.2957 56.5627 25.0397 56.168C24.7944 55.7733 24.6717 55.272 24.6717 54.664C24.6717 54.088 24.8264 53.576 25.1357 53.128C25.445 52.6693 25.8877 52.3067 26.4637 52.04C27.0504 51.7733 27.7597 51.64 28.5917 51.64C29.253 51.64 29.829 51.7307 30.3197 51.912C30.821 52.0827 31.237 52.3173 31.5677 52.616C31.8984 52.904 32.149 53.2187 32.3197 53.56C32.4904 53.8907 32.581 54.216 32.5917 54.536C32.5917 54.6107 32.565 54.6853 32.5117 54.76C32.4584 54.824 32.373 54.856 32.2557 54.856H31.4077C31.333 54.856 31.253 54.8347 31.1677 54.792C31.093 54.7493 31.0344 54.6693 30.9917 54.552C30.9277 54.1147 30.6824 53.7467 30.2557 53.448C29.829 53.1493 29.2744 53 28.5917 53C27.8984 53 27.333 53.1333 26.8957 53.4C26.469 53.6667 26.2557 54.0827 26.2557 54.648C26.2557 55.0107 26.357 55.3147 26.5597 55.56C26.7624 55.7947 27.0824 56.0027 27.5197 56.184C27.957 56.3653 28.5277 56.5573 29.2317 56.76C30.085 56.9947 30.7837 57.2453 31.3277 57.512C31.8717 57.768 32.2717 58.0933 32.5277 58.488C32.7944 58.872 32.9277 59.368 32.9277 59.976C32.9277 60.648 32.7517 61.224 32.3997 61.704C32.0477 62.1733 31.5517 62.536 30.9117 62.792C30.2824 63.0373 29.5357 63.16 28.6717 63.16ZM38.0648 63C37.4675 63 36.9821 62.888 36.6088 62.664C36.2355 62.4293 35.9635 62.104 35.7928 61.688C35.6221 61.2613 35.5368 60.76 35.5368 60.184V55.96H34.2888C34.1821 55.96 34.0915 55.928 34.0168 55.864C33.9528 55.7893 33.9208 55.6987 33.9208 55.592V55.048C33.9208 54.9413 33.9528 54.856 34.0168 54.792C34.0915 54.7173 34.1821 54.68 34.2888 54.68H35.5368V52.008C35.5368 51.9013 35.5688 51.816 35.6328 51.752C35.7075 51.6773 35.7981 51.64 35.9048 51.64H36.6568C36.7635 51.64 36.8488 51.6773 36.9128 51.752C36.9875 51.816 37.0248 51.9013 37.0248 52.008V54.68H39.0088C39.1155 54.68 39.2008 54.7173 39.2648 54.792C39.3395 54.856 39.3768 54.9413 39.3768 55.048V55.592C39.3768 55.6987 39.3395 55.7893 39.2648 55.864C39.2008 55.928 39.1155 55.96 39.0088 55.96H37.0248V60.072C37.0248 60.5733 37.1101 60.968 37.2808 61.256C37.4515 61.544 37.7555 61.688 38.1928 61.688H39.1688C39.2755 61.688 39.3608 61.7253 39.4248 61.8C39.4995 61.864 39.5368 61.9493 39.5368 62.056V62.632C39.5368 62.7387 39.4995 62.8293 39.4248 62.904C39.3608 62.968 39.2755 63 39.1688 63H38.0648ZM41.4348 63C41.3281 63 41.2375 62.968 41.1628 62.904C41.0988 62.8293 41.0668 62.7387 41.0668 62.632V55.064C41.0668 54.9573 41.0988 54.8667 41.1628 54.792C41.2375 54.7173 41.3281 54.68 41.4348 54.68H42.1708C42.2775 54.68 42.3681 54.7173 42.4428 54.792C42.5175 54.8667 42.5548 54.9573 42.5548 55.064V55.768C42.7681 55.4053 43.0615 55.1333 43.4348 54.952C43.8081 54.7707 44.2561 54.68 44.7788 54.68H45.4188C45.5255 54.68 45.6108 54.7173 45.6748 54.792C45.7388 54.856 45.7708 54.9413 45.7708 55.048V55.704C45.7708 55.8107 45.7388 55.896 45.6748 55.96C45.6108 56.024 45.5255 56.056 45.4188 56.056H44.4588C43.8828 56.056 43.4295 56.2267 43.0988 56.568C42.7681 56.8987 42.6028 57.352 42.6028 57.928V62.632C42.6028 62.7387 42.5655 62.8293 42.4908 62.904C42.4161 62.968 42.3255 63 42.2188 63H41.4348ZM47.5129 63C47.4063 63 47.3156 62.968 47.2409 62.904C47.1769 62.8293 47.1449 62.7387 47.1449 62.632V55.048C47.1449 54.9413 47.1769 54.856 47.2409 54.792C47.3156 54.7173 47.4063 54.68 47.5129 54.68H48.2809C48.3876 54.68 48.4729 54.7173 48.5369 54.792C48.6009 54.856 48.6329 54.9413 48.6329 55.048V62.632C48.6329 62.7387 48.6009 62.8293 48.5369 62.904C48.4729 62.968 48.3876 63 48.2809 63H47.5129ZM47.3849 53.128C47.2783 53.128 47.1876 53.096 47.1129 53.032C47.0489 52.9573 47.0169 52.8667 47.0169 52.76V51.896C47.0169 51.7893 47.0489 51.704 47.1129 51.64C47.1876 51.5653 47.2783 51.528 47.3849 51.528H48.3929C48.4996 51.528 48.5849 51.5653 48.6489 51.64C48.7236 51.704 48.7609 51.7893 48.7609 51.896V52.76C48.7609 52.8667 48.7236 52.9573 48.6489 53.032C48.5849 53.096 48.4996 53.128 48.3929 53.128H47.3849ZM51.4039 66.04C51.2973 66.04 51.2066 66.0027 51.1319 65.928C51.0679 65.864 51.0359 65.7787 51.0359 65.672V55.048C51.0359 54.9413 51.0679 54.856 51.1319 54.792C51.2066 54.7173 51.2973 54.68 51.4039 54.68H52.1399C52.2466 54.68 52.3319 54.7173 52.3959 54.792C52.4706 54.856 52.5079 54.9413 52.5079 55.048V55.752C52.7639 55.4 53.1053 55.1067 53.5319 54.872C53.9586 54.6373 54.4919 54.52 55.1319 54.52C55.7293 54.52 56.2359 54.6213 56.6519 54.824C57.0786 55.0267 57.4253 55.304 57.6919 55.656C57.9693 56.008 58.1773 56.408 58.3159 56.856C58.4546 57.304 58.5293 57.784 58.5399 58.296C58.5506 58.4667 58.5559 58.648 58.5559 58.84C58.5559 59.032 58.5506 59.2133 58.5399 59.384C58.5293 59.8853 58.4546 60.3653 58.3159 60.824C58.1773 61.272 57.9693 61.672 57.6919 62.024C57.4253 62.3653 57.0786 62.6427 56.6519 62.856C56.2359 63.0587 55.7293 63.16 55.1319 63.16C54.5133 63.16 53.9906 63.048 53.5639 62.824C53.1479 62.5893 52.8066 62.3013 52.5399 61.96V65.672C52.5399 65.7787 52.5079 65.864 52.4439 65.928C52.3799 66.0027 52.2893 66.04 52.1719 66.04H51.4039ZM54.7959 61.864C55.3506 61.864 55.7826 61.7467 56.0919 61.512C56.4119 61.2667 56.6413 60.952 56.7799 60.568C56.9186 60.1733 56.9986 59.752 57.0199 59.304C57.0306 58.9947 57.0306 58.6853 57.0199 58.376C56.9986 57.928 56.9186 57.512 56.7799 57.128C56.6413 56.7333 56.4119 56.4187 56.0919 56.184C55.7826 55.9387 55.3506 55.816 54.7959 55.816C54.2733 55.816 53.8466 55.9387 53.5159 56.184C53.1959 56.4293 52.9559 56.744 52.7959 57.128C52.6466 57.5013 52.5613 57.8853 52.5399 58.28C52.5293 58.4507 52.5239 58.6533 52.5239 58.888C52.5239 59.1227 52.5293 59.3307 52.5399 59.512C52.5506 59.8853 52.6359 60.2533 52.7959 60.616C52.9666 60.9787 53.2173 61.2773 53.5479 61.512C53.8786 61.7467 54.2946 61.864 54.7959 61.864ZM63.8632 63.16C62.7645 63.16 61.8899 62.824 61.2392 62.152C60.5885 61.4693 60.2312 60.5413 60.1672 59.368C60.1565 59.2293 60.1512 59.0533 60.1512 58.84C60.1512 58.616 60.1565 58.4347 60.1672 58.296C60.2099 57.5387 60.3859 56.8773 60.6952 56.312C61.0045 55.736 61.4259 55.2933 61.9592 54.984C62.5032 54.6747 63.1379 54.52 63.8632 54.52C64.6739 54.52 65.3512 54.6907 65.8952 55.032C66.4499 55.3733 66.8712 55.8587 67.1592 56.488C67.4472 57.1173 67.5912 57.8533 67.5912 58.696V58.968C67.5912 59.0853 67.5539 59.176 67.4792 59.24C67.4152 59.304 67.3299 59.336 67.2232 59.336H61.6872C61.6872 59.3467 61.6872 59.368 61.6872 59.4C61.6872 59.432 61.6872 59.4587 61.6872 59.48C61.7085 59.9173 61.8045 60.328 61.9752 60.712C62.1459 61.0853 62.3912 61.3893 62.7112 61.624C63.0312 61.8587 63.4152 61.976 63.8632 61.976C64.2472 61.976 64.5672 61.9173 64.8232 61.8C65.0792 61.6827 65.2872 61.5547 65.4472 61.416C65.6072 61.2667 65.7139 61.1547 65.7672 61.08C65.8632 60.9413 65.9379 60.8613 65.9912 60.84C66.0445 60.808 66.1299 60.792 66.2472 60.792H67.0152C67.1219 60.792 67.2072 60.824 67.2712 60.888C67.3459 60.9413 67.3779 61.0213 67.3672 61.128C67.3565 61.288 67.2712 61.4853 67.1112 61.72C66.9512 61.944 66.7219 62.168 66.4232 62.392C66.1245 62.616 65.7619 62.8027 65.3352 62.952C64.9085 63.0907 64.4179 63.16 63.8632 63.16ZM61.6872 58.232H66.0712V58.184C66.0712 57.704 65.9805 57.2773 65.7992 56.904C65.6285 56.5307 65.3779 56.2373 65.0472 56.024C64.7165 55.8 64.3219 55.688 63.8632 55.688C63.4045 55.688 63.0099 55.8 62.6792 56.024C62.3592 56.2373 62.1139 56.5307 61.9432 56.904C61.7725 57.2773 61.6872 57.704 61.6872 58.184V58.232Z" fill="white"/>
<defs>
<clipPath id="clip0_1748_4495">
<rect width="34" height="34" fill="white" transform="translate(29 3)"/>
</clipPath>
</defs>
</svg>
