<svg width="92" height="67" viewBox="0 0 92 67" fill="none" xmlns="http://www.w3.org/2000/svg">
<g clip-path="url(#clip0_1748_4499)">
<path d="M36.5351 23.5464L35.3516 27.9645L31.026 28.056C29.7333 25.6583 29 22.915 29 19.9997C29 17.1807 29.6856 14.5224 30.9008 12.1816H30.9017L34.7527 12.8877L36.4397 16.7156C36.0866 17.7449 35.8942 18.8499 35.8942 19.9997C35.8943 21.2476 36.1204 22.4433 36.5351 23.5464Z" fill="#FBBB00"/>
<path d="M62.7029 16.8242C62.8982 17.8526 63 18.9146 63 20C63 21.2171 62.872 22.4043 62.6282 23.5495C61.8007 27.4464 59.6383 30.8492 56.6428 33.2572L56.6419 33.2562L51.7913 33.0087L51.1048 28.7232C53.0925 27.5575 54.6458 25.7333 55.4641 23.5495H46.3738V16.8242H55.5967H62.7029Z" fill="#518EF8"/>
<path d="M56.6416 33.2564L56.6425 33.2574C53.7292 35.599 50.0284 37.0001 45.9998 37.0001C39.5258 37.0001 33.8972 33.3816 31.0259 28.0565L36.535 23.5469C37.9706 27.3784 41.6667 30.1059 45.9998 30.1059C47.8623 30.1059 49.6072 29.6024 51.1045 28.7234L56.6416 33.2564Z" fill="#28B446"/>
<path d="M56.8508 6.9137L51.3435 11.4224C49.7939 10.4538 47.9622 9.89427 45.9998 9.89427C41.5686 9.89427 37.8033 12.7469 36.4396 16.7158L30.9016 12.1818H30.9006C33.7299 6.7269 39.4296 3 45.9998 3C50.1246 3 53.9066 4.4693 56.8508 6.9137Z" fill="#F14336"/>
</g>
<path d="M25.6279 63.16C24.6892 63.16 23.8892 62.984 23.2279 62.632C22.5772 62.28 22.0759 61.784 21.7239 61.144C21.3825 60.504 21.1905 59.752 21.1479 58.888C21.1372 58.4187 21.1319 57.9227 21.1319 57.4C21.1319 56.8667 21.1372 56.36 21.1479 55.88C21.1905 55.016 21.3825 54.2693 21.7239 53.64C22.0759 53.0107 22.5825 52.52 23.2439 52.168C23.9052 51.816 24.6999 51.64 25.6279 51.64C26.3852 51.64 27.0412 51.7467 27.5959 51.96C28.1505 52.1733 28.6039 52.4453 28.9559 52.776C29.3185 53.096 29.5852 53.432 29.7559 53.784C29.9372 54.136 30.0332 54.4453 30.0439 54.712C30.0545 54.808 30.0279 54.888 29.9639 54.952C29.8999 55.0053 29.8145 55.032 29.7079 55.032H28.7639C28.6572 55.032 28.5772 55.0107 28.5239 54.968C28.4812 54.9253 28.4385 54.8507 28.3959 54.744C28.2999 54.4667 28.1399 54.1947 27.9159 53.928C27.7025 53.6613 27.4092 53.4427 27.0359 53.272C26.6732 53.0907 26.2039 53 25.6279 53C24.7852 53 24.1025 53.2293 23.5799 53.688C23.0679 54.1467 22.7905 54.904 22.7479 55.96C22.7159 56.9093 22.7159 57.8587 22.7479 58.808C22.7905 59.8747 23.0732 60.6427 23.5959 61.112C24.1185 61.5707 24.8012 61.8 25.6439 61.8C26.2092 61.8 26.7105 61.6987 27.1479 61.496C27.5959 61.2827 27.9479 60.9573 28.2039 60.52C28.4599 60.0827 28.5879 59.528 28.5879 58.856V58.184H26.1879C26.0812 58.184 25.9905 58.152 25.9159 58.088C25.8519 58.0133 25.8199 57.9173 25.8199 57.8V57.288C25.8199 57.1707 25.8519 57.08 25.9159 57.016C25.9905 56.9413 26.0812 56.904 26.1879 56.904H29.8039C29.9212 56.904 30.0119 56.9413 30.0759 57.016C30.1399 57.08 30.1719 57.1707 30.1719 57.288V58.824C30.1719 59.6987 29.9905 60.4613 29.6279 61.112C29.2759 61.7627 28.7585 62.2693 28.0759 62.632C27.3932 62.984 26.5772 63.16 25.6279 63.16ZM35.6545 63.16C34.8438 63.16 34.1665 63.0053 33.6225 62.696C33.0785 62.3867 32.6625 61.96 32.3745 61.416C32.0865 60.8613 31.9265 60.232 31.8945 59.528C31.8838 59.3467 31.8785 59.1173 31.8785 58.84C31.8785 58.552 31.8838 58.3227 31.8945 58.152C31.9265 57.4373 32.0865 56.808 32.3745 56.264C32.6732 55.72 33.0945 55.2933 33.6385 54.984C34.1825 54.6747 34.8545 54.52 35.6545 54.52C36.4545 54.52 37.1265 54.6747 37.6705 54.984C38.2145 55.2933 38.6305 55.72 38.9185 56.264C39.2172 56.808 39.3825 57.4373 39.4145 58.152C39.4252 58.3227 39.4305 58.552 39.4305 58.84C39.4305 59.1173 39.4252 59.3467 39.4145 59.528C39.3825 60.232 39.2225 60.8613 38.9345 61.416C38.6465 61.96 38.2305 62.3867 37.6865 62.696C37.1425 63.0053 36.4652 63.16 35.6545 63.16ZM35.6545 61.928C36.3158 61.928 36.8438 61.72 37.2385 61.304C37.6332 60.8773 37.8465 60.2587 37.8785 59.448C37.8892 59.288 37.8945 59.0853 37.8945 58.84C37.8945 58.5947 37.8892 58.392 37.8785 58.232C37.8465 57.4213 37.6332 56.808 37.2385 56.392C36.8438 55.9653 36.3158 55.752 35.6545 55.752C34.9932 55.752 34.4598 55.9653 34.0545 56.392C33.6598 56.808 33.4518 57.4213 33.4305 58.232C33.4198 58.392 33.4145 58.5947 33.4145 58.84C33.4145 59.0853 33.4198 59.288 33.4305 59.448C33.4518 60.2587 33.6598 60.8773 34.0545 61.304C34.4598 61.72 34.9932 61.928 35.6545 61.928ZM44.842 63.16C44.0313 63.16 43.354 63.0053 42.81 62.696C42.266 62.3867 41.85 61.96 41.562 61.416C41.274 60.8613 41.114 60.232 41.082 59.528C41.0713 59.3467 41.066 59.1173 41.066 58.84C41.066 58.552 41.0713 58.3227 41.082 58.152C41.114 57.4373 41.274 56.808 41.562 56.264C41.8607 55.72 42.282 55.2933 42.826 54.984C43.37 54.6747 44.042 54.52 44.842 54.52C45.642 54.52 46.314 54.6747 46.858 54.984C47.402 55.2933 47.818 55.72 48.106 56.264C48.4047 56.808 48.57 57.4373 48.602 58.152C48.6127 58.3227 48.618 58.552 48.618 58.84C48.618 59.1173 48.6127 59.3467 48.602 59.528C48.57 60.232 48.41 60.8613 48.122 61.416C47.834 61.96 47.418 62.3867 46.874 62.696C46.33 63.0053 45.6527 63.16 44.842 63.16ZM44.842 61.928C45.5033 61.928 46.0313 61.72 46.426 61.304C46.8207 60.8773 47.034 60.2587 47.066 59.448C47.0767 59.288 47.082 59.0853 47.082 58.84C47.082 58.5947 47.0767 58.392 47.066 58.232C47.034 57.4213 46.8207 56.808 46.426 56.392C46.0313 55.9653 45.5033 55.752 44.842 55.752C44.1807 55.752 43.6473 55.9653 43.242 56.392C42.8473 56.808 42.6393 57.4213 42.618 58.232C42.6073 58.392 42.602 58.5947 42.602 58.84C42.602 59.0853 42.6073 59.288 42.618 59.448C42.6393 60.2587 42.8473 60.8773 43.242 61.304C43.6473 61.72 44.1807 61.928 44.842 61.928ZM54.0295 66.52C53.3042 66.52 52.7068 66.424 52.2375 66.232C51.7788 66.04 51.4162 65.8053 51.1495 65.528C50.8935 65.2613 50.7068 64.9893 50.5895 64.712C50.4828 64.4453 50.4242 64.232 50.4135 64.072C50.4028 63.9653 50.4348 63.8747 50.5095 63.8C50.5948 63.7253 50.6855 63.688 50.7815 63.688H51.5495C51.6455 63.688 51.7255 63.7093 51.7895 63.752C51.8535 63.7947 51.9068 63.8853 51.9495 64.024C52.0135 64.184 52.1095 64.36 52.2375 64.552C52.3655 64.7547 52.5628 64.9253 52.8295 65.064C53.0962 65.2133 53.4695 65.288 53.9495 65.288C54.4508 65.288 54.8722 65.2187 55.2135 65.08C55.5548 64.952 55.8108 64.7173 55.9815 64.376C56.1628 64.0453 56.2535 63.5867 56.2535 63V61.912C55.9975 62.2427 55.6615 62.52 55.2455 62.744C54.8295 62.9573 54.3068 63.064 53.6775 63.064C53.0802 63.064 52.5682 62.9627 52.1415 62.76C51.7148 62.5467 51.3628 62.264 51.0855 61.912C50.8188 61.5493 50.6162 61.1387 50.4775 60.68C50.3495 60.2213 50.2748 59.7413 50.2535 59.24C50.2428 58.9413 50.2428 58.648 50.2535 58.36C50.2748 57.8587 50.3495 57.3787 50.4775 56.92C50.6162 56.4613 50.8188 56.0507 51.0855 55.688C51.3628 55.3253 51.7148 55.0427 52.1415 54.84C52.5682 54.6267 53.0802 54.52 53.6775 54.52C54.3175 54.52 54.8455 54.6427 55.2615 54.888C55.6882 55.1227 56.0348 55.4107 56.3015 55.752V55.064C56.3015 54.9573 56.3335 54.8667 56.3975 54.792C56.4722 54.7173 56.5628 54.68 56.6695 54.68H57.4055C57.5122 54.68 57.6028 54.7173 57.6775 54.792C57.7522 54.8667 57.7895 54.9573 57.7895 55.064V62.824C57.7895 63.5387 57.6668 64.1733 57.4215 64.728C57.1868 65.2827 56.7922 65.72 56.2375 66.04C55.6935 66.36 54.9575 66.52 54.0295 66.52ZM53.9975 61.784C54.5308 61.784 54.9575 61.6613 55.2775 61.416C55.6082 61.1707 55.8482 60.8613 55.9975 60.488C56.1575 60.1147 56.2428 59.736 56.2535 59.352C56.2642 59.2027 56.2695 59.0213 56.2695 58.808C56.2695 58.584 56.2642 58.3973 56.2535 58.248C56.2428 57.864 56.1575 57.4853 55.9975 57.112C55.8482 56.7387 55.6082 56.4293 55.2775 56.184C54.9575 55.9387 54.5308 55.816 53.9975 55.816C53.4642 55.816 53.0375 55.9387 52.7175 56.184C52.3975 56.4187 52.1682 56.7333 52.0295 57.128C51.8908 57.512 51.8108 57.928 51.7895 58.376C51.7788 58.6533 51.7788 58.936 51.7895 59.224C51.8108 59.672 51.8908 60.0933 52.0295 60.488C52.1682 60.872 52.3975 61.1867 52.7175 61.432C53.0375 61.6667 53.4642 61.784 53.9975 61.784ZM60.5524 63C60.4457 63 60.355 62.968 60.2804 62.904C60.2164 62.8293 60.1844 62.7387 60.1844 62.632V52.008C60.1844 51.9013 60.2164 51.816 60.2804 51.752C60.355 51.6773 60.4457 51.64 60.5524 51.64H61.3044C61.4217 51.64 61.5124 51.6773 61.5764 51.752C61.6404 51.816 61.6724 51.9013 61.6724 52.008V62.632C61.6724 62.7387 61.6404 62.8293 61.5764 62.904C61.5124 62.968 61.4217 63 61.3044 63H60.5524ZM67.371 63.16C66.2723 63.16 65.3977 62.824 64.747 62.152C64.0963 61.4693 63.739 60.5413 63.675 59.368C63.6643 59.2293 63.659 59.0533 63.659 58.84C63.659 58.616 63.6643 58.4347 63.675 58.296C63.7177 57.5387 63.8937 56.8773 64.203 56.312C64.5123 55.736 64.9337 55.2933 65.467 54.984C66.011 54.6747 66.6457 54.52 67.371 54.52C68.1817 54.52 68.859 54.6907 69.403 55.032C69.9577 55.3733 70.379 55.8587 70.667 56.488C70.955 57.1173 71.099 57.8533 71.099 58.696V58.968C71.099 59.0853 71.0617 59.176 70.987 59.24C70.923 59.304 70.8377 59.336 70.731 59.336H65.195C65.195 59.3467 65.195 59.368 65.195 59.4C65.195 59.432 65.195 59.4587 65.195 59.48C65.2163 59.9173 65.3123 60.328 65.483 60.712C65.6537 61.0853 65.899 61.3893 66.219 61.624C66.539 61.8587 66.923 61.976 67.371 61.976C67.755 61.976 68.075 61.9173 68.331 61.8C68.587 61.6827 68.795 61.5547 68.955 61.416C69.115 61.2667 69.2217 61.1547 69.275 61.08C69.371 60.9413 69.4457 60.8613 69.499 60.84C69.5523 60.808 69.6377 60.792 69.755 60.792H70.523C70.6297 60.792 70.715 60.824 70.779 60.888C70.8537 60.9413 70.8857 61.0213 70.875 61.128C70.8643 61.288 70.779 61.4853 70.619 61.72C70.459 61.944 70.2297 62.168 69.931 62.392C69.6323 62.616 69.2697 62.8027 68.843 62.952C68.4163 63.0907 67.9257 63.16 67.371 63.16ZM65.195 58.232H69.579V58.184C69.579 57.704 69.4883 57.2773 69.307 56.904C69.1363 56.5307 68.8857 56.2373 68.555 56.024C68.2243 55.8 67.8297 55.688 67.371 55.688C66.9123 55.688 66.5177 55.8 66.187 56.024C65.867 56.2373 65.6217 56.5307 65.451 56.904C65.2803 57.2773 65.195 57.704 65.195 58.184V58.232Z" fill="white"/>
<defs>
<clipPath id="clip0_1748_4499">
<rect width="34" height="34" fill="white" transform="translate(29 3)"/>
</clipPath>
</defs>
</svg>
