<svg width="45" height="45" viewBox="0 0 45 45" fill="none" xmlns="http://www.w3.org/2000/svg">
<path d="M26.25 34.6875H34.6875M34.6875 34.6875H43.125M34.6875 34.6875V26.25M34.6875 34.6875V43.125M7.5 18.75H13.125C16.2316 18.75 18.75 16.2316 18.75 13.125V7.5C18.75 4.3934 16.2316 1.875 13.125 1.875H7.5C4.3934 1.875 1.875 4.3934 1.875 7.5V13.125C1.875 16.2316 4.3934 18.75 7.5 18.75ZM7.5 43.125H13.125C16.2316 43.125 18.75 40.6066 18.75 37.5V31.875C18.75 28.7684 16.2316 26.25 13.125 26.25H7.5C4.3934 26.25 1.875 28.7684 1.875 31.875V37.5C1.875 40.6066 4.3934 43.125 7.5 43.125ZM31.875 18.75H37.5C40.6066 18.75 43.125 16.2316 43.125 13.125V7.5C43.125 4.3934 40.6066 1.875 37.5 1.875H31.875C28.7684 1.875 26.25 4.3934 26.25 7.5V13.125C26.25 16.2316 28.7684 18.75 31.875 18.75Z" stroke="url(#paint0_linear_1252_268)" stroke-width="3.75" stroke-linecap="round" stroke-linejoin="round"/>
<defs>
<linearGradient id="paint0_linear_1252_268" x1="-15.175" y1="2.18284" x2="67.9704" y2="39.5773" gradientUnits="userSpaceOnUse">
<stop offset="0.168269" stop-color="#00B2C2"/>
<stop offset="0.617696" stop-color="#093493"/>
<stop offset="1" stop-color="#321F96"/>
</linearGradient>
</defs>
</svg>
