<svg width="45" height="45" viewBox="0 0 45 45" fill="none" xmlns="http://www.w3.org/2000/svg">
<path d="M1.875 7.5C1.875 4.3934 4.3934 1.875 7.5 1.875H13.125C16.2316 1.875 18.75 4.3934 18.75 7.5V13.125C18.75 16.2316 16.2316 18.75 13.125 18.75H7.5C4.3934 18.75 1.875 16.2316 1.875 13.125V7.5Z" stroke="url(#paint0_linear_1252_837)" stroke-width="3.75" stroke-linecap="round" stroke-linejoin="round"/>
<path d="M1.875 31.875C1.875 28.7684 4.3934 26.25 7.5 26.25H13.125C16.2316 26.25 18.75 28.7684 18.75 31.875V37.5C18.75 40.6066 16.2316 43.125 13.125 43.125H7.5C4.3934 43.125 1.875 40.6066 1.875 37.5V31.875Z" stroke="url(#paint1_linear_1252_837)" stroke-width="3.75" stroke-linecap="round" stroke-linejoin="round"/>
<path d="M26.25 7.5C26.25 4.3934 28.7684 1.875 31.875 1.875H37.5C40.6066 1.875 43.125 4.3934 43.125 7.5V13.125C43.125 16.2316 40.6066 18.75 37.5 18.75H31.875C28.7684 18.75 26.25 16.2316 26.25 13.125V7.5Z" stroke="url(#paint2_linear_1252_837)" stroke-width="3.75" stroke-linecap="round" stroke-linejoin="round"/>
<path d="M26.25 31.875C26.25 28.7684 28.7684 26.25 31.875 26.25H37.5C40.6066 26.25 43.125 28.7684 43.125 31.875V37.5C43.125 40.6066 40.6066 43.125 37.5 43.125H31.875C28.7684 43.125 26.25 40.6066 26.25 37.5V31.875Z" stroke="url(#paint3_linear_1252_837)" stroke-width="3.75" stroke-linecap="round" stroke-linejoin="round"/>
<defs>
<linearGradient id="paint0_linear_1252_837" x1="-15.175" y1="2.18284" x2="67.9704" y2="39.5773" gradientUnits="userSpaceOnUse">
<stop offset="0.168269" stop-color="#00B2C2"/>
<stop offset="0.617696" stop-color="#093493"/>
<stop offset="1" stop-color="#321F96"/>
</linearGradient>
<linearGradient id="paint1_linear_1252_837" x1="-15.175" y1="2.18284" x2="67.9704" y2="39.5773" gradientUnits="userSpaceOnUse">
<stop offset="0.168269" stop-color="#00B2C2"/>
<stop offset="0.617696" stop-color="#093493"/>
<stop offset="1" stop-color="#321F96"/>
</linearGradient>
<linearGradient id="paint2_linear_1252_837" x1="-15.175" y1="2.18284" x2="67.9704" y2="39.5773" gradientUnits="userSpaceOnUse">
<stop offset="0.168269" stop-color="#00B2C2"/>
<stop offset="0.617696" stop-color="#093493"/>
<stop offset="1" stop-color="#321F96"/>
</linearGradient>
<linearGradient id="paint3_linear_1252_837" x1="-15.175" y1="2.18284" x2="67.9704" y2="39.5773" gradientUnits="userSpaceOnUse">
<stop offset="0.168269" stop-color="#00B2C2"/>
<stop offset="0.617696" stop-color="#093493"/>
<stop offset="1" stop-color="#321F96"/>
</linearGradient>
</defs>
</svg>
