<svg width="53" height="53" viewBox="0 0 53 53" fill="none" xmlns="http://www.w3.org/2000/svg">
<path d="M20.783 36.0095L18.75 43.125L16.717 36.0095C15.6492 32.2722 12.7278 29.3508 8.99047 28.283L1.875 26.25L8.99048 24.217C12.7278 23.1492 15.6492 20.2278 16.717 16.4905L18.75 9.375L20.783 16.4905C21.8508 20.2278 24.7722 23.1492 28.5095 24.217L35.625 26.25L28.5095 28.283C24.7722 29.3508 21.8508 32.2722 20.783 36.0095Z" stroke="url(#paint0_linear_1252_686)" stroke-width="3.75" stroke-linecap="round" stroke-linejoin="round"/>
<path d="M41.8972 18.0363L41.25 20.625L40.6028 18.0363C39.8471 15.0133 37.4867 12.6529 34.4637 11.8972L31.875 11.25L34.4637 10.6028C37.4867 9.84708 39.8471 7.48669 40.6028 4.46366L41.25 1.875L41.8972 4.46365C42.6529 7.48669 45.0133 9.84708 48.0363 10.6028L50.625 11.25L48.0363 11.8972C45.0133 12.6529 42.6529 15.0133 41.8972 18.0363Z" stroke="url(#paint1_linear_1252_686)" stroke-width="3.75" stroke-linecap="round" stroke-linejoin="round"/>
<path d="M38.4856 47.6682L37.5 50.625L36.5144 47.6682C35.9545 45.9885 34.6365 44.6705 32.9568 44.1106L30 43.125L32.9568 42.1394C34.6365 41.5795 35.9545 40.2615 36.5144 38.5818L37.5 35.625L38.4856 38.5818C39.0455 40.2615 40.3635 41.5795 42.0432 42.1394L45 43.125L42.0432 44.1106C40.3635 44.6705 39.0455 45.9885 38.4856 47.6682Z" stroke="url(#paint2_linear_1252_686)" stroke-width="3.75" stroke-linecap="round" stroke-linejoin="round"/>
<defs>
<linearGradient id="paint0_linear_1252_686" x1="-18.275" y1="2.23881" x2="79.9878" y2="46.4322" gradientUnits="userSpaceOnUse">
<stop offset="0.168269" stop-color="#00B2C2"/>
<stop offset="0.617696" stop-color="#093493"/>
<stop offset="1" stop-color="#321F96"/>
</linearGradient>
<linearGradient id="paint1_linear_1252_686" x1="-18.275" y1="2.23881" x2="79.9878" y2="46.4322" gradientUnits="userSpaceOnUse">
<stop offset="0.168269" stop-color="#00B2C2"/>
<stop offset="0.617696" stop-color="#093493"/>
<stop offset="1" stop-color="#321F96"/>
</linearGradient>
<linearGradient id="paint2_linear_1252_686" x1="-18.275" y1="2.23881" x2="79.9878" y2="46.4322" gradientUnits="userSpaceOnUse">
<stop offset="0.168269" stop-color="#00B2C2"/>
<stop offset="0.617696" stop-color="#093493"/>
<stop offset="1" stop-color="#321F96"/>
</linearGradient>
</defs>
</svg>
